# xmcd CD database file
#
# Track frame offsets:
#	150
#	11355
#	24180
#	45375
#	61629
#	90411
#	106638
#	120138
#	133395
#	149514
#
# Disc length: 2248 seconds
#
# Revision: 0
# Processed by: cddbd v1.4PL0 Copyright (c) Steve Scherf et al.
# Submitted via: CDex 1.40Release
#
DISCID=6b08c60a
DTITLE=Big Val - In My Kitchen
DYEAR=2003
DGENRE=Blues
TTITLE0=Cross Road Blues
TTITLE1=Bring It On Home
TTITLE2=Third Degree
TTITLE3=Love In Vain
TTITLE4=I'm The Wolf
TTITLE5=Catfish
TTITLE6=Kindhearted Woman Blues
TTITLE7=Driftin'
TTITLE8=Walking Blues
TTITLE9=Hoochie Coochie Man
EXTD=YEAR: 2003 ID3G: 0
EXTT0=
EXTT1=
EXTT2=
EXTT3=
EXTT4=
EXTT5=
EXTT6=
EXTT7=
EXTT8=
EXTT9=
PLAYORDER=
